<svg width="531" height="106" viewBox="0 0 531 106" fill="none" xmlns="http://www.w3.org/2000/svg">
<path d="M136.18 25V34.52H122.04V74H112.03V34.52H97.96V25H136.18ZM162.569 34.66C163.479 34.66 164.179 34.73 164.809 34.8V45.09C164.039 45.02 163.479 44.95 162.359 44.95C155.989 44.95 150.529 47.75 150.529 56.85V74H140.519V35.5H150.529V42.22C152.909 37.18 157.109 34.66 162.569 34.66ZM198.539 35.5H208.549L208.479 74H198.469V68.82C195.809 72.46 191.819 74.84 186.429 74.84C176.349 74.84 168.859 66.58 168.859 54.75C168.859 42.85 176.489 34.66 186.359 34.66C191.819 34.66 195.879 37.18 198.539 40.89V35.5ZM188.669 65.32C194.269 65.32 198.539 61.12 198.539 54.75C198.539 48.45 194.269 44.18 188.669 44.18C183.069 44.18 178.939 48.45 178.939 54.75C178.939 61.12 183.139 65.32 188.669 65.32ZM245.506 20.1H255.516V74H245.506V68.82C242.846 72.46 238.786 74.84 233.396 74.84C223.386 74.84 215.826 66.58 215.826 54.75C215.826 42.85 223.456 34.66 233.326 34.66C238.786 34.66 242.846 37.18 245.506 40.89V20.1ZM235.636 65.32C241.236 65.32 245.506 61.12 245.506 54.75C245.506 48.45 241.236 44.18 235.636 44.18C230.036 44.18 225.906 48.45 225.906 54.75C225.906 61.12 230.106 65.32 235.636 65.32ZM282.311 34.66C295.051 34.66 302.961 44.67 301.981 57.34H272.441C273.071 63.5 277.271 66.58 282.451 66.58C286.301 66.58 289.661 64.83 290.991 61.75H301.351C298.481 70.85 290.781 74.84 282.521 74.84C270.481 74.84 262.221 66.3 262.221 54.82C262.221 43.27 270.551 34.66 282.311 34.66ZM282.241 42.92C277.341 42.92 274.191 45.86 272.931 49.99H291.341C290.221 45.79 287.071 42.92 282.241 42.92ZM330.495 34.66C331.405 34.66 332.105 34.73 332.735 34.8V45.09C331.965 45.02 331.405 44.95 330.285 44.95C323.915 44.95 318.455 47.75 318.455 56.85V74H308.445V35.5H318.455V42.22C320.835 37.18 325.035 34.66 330.495 34.66ZM383.891 34.66C392.081 34.66 397.191 40.33 397.191 49.64V74H387.181V51.81C387.181 46.91 385.361 44.18 380.531 44.18C375.281 44.18 372.551 47.68 372.551 53.77V74H362.541V51.81C362.541 46.91 360.721 44.18 355.891 44.18C350.641 44.18 347.841 47.68 347.841 53.77L347.911 74H337.831V35.5H347.911V40.61C350.641 36.76 354.281 34.66 359.321 34.66C364.851 34.66 368.911 37.25 371.011 41.94C373.811 37.39 378.221 34.66 383.891 34.66ZM433.244 35.5H443.254L443.184 74H433.174V68.82C430.514 72.46 426.524 74.84 421.134 74.84C411.054 74.84 403.564 66.58 403.564 54.75C403.564 42.85 411.194 34.66 421.064 34.66C426.524 34.66 430.584 37.18 433.244 40.89V35.5ZM423.374 65.32C428.974 65.32 433.244 61.12 433.244 54.75C433.244 48.45 428.974 44.18 423.374 44.18C417.774 44.18 413.644 48.45 413.644 54.75C413.644 61.12 417.844 65.32 423.374 65.32ZM479.511 63.64L481.191 71.76C479.091 73.16 474.331 74.84 469.711 74.84C462.011 74.84 455.291 70.22 455.291 59.16V44.95H448.431V35.5H455.291V27.17L465.301 25V35.5H479.581V44.95H465.301V58.6C465.301 63.15 467.471 65.53 471.461 65.53C473.701 65.53 476.361 64.76 479.511 63.64ZM509.707 34.66C518.317 34.66 523.567 40.4 523.567 49.85V74H513.557V52.02C513.557 46.98 511.597 44.18 506.347 44.18C500.747 44.18 497.737 47.47 497.737 53.77V74H487.727V20.1H497.737V40.75C500.537 36.83 504.387 34.66 509.707 34.66Z" fill="white"/>
<path d="M12.1815 29.4419L12.1842 14.8573L62.6567 44.712L62.654 59.9911L12.1815 29.4419Z" fill="#BE0000"/>
<path d="M24.9181 22.2604L12.1842 14.8573L12.1707 89.4009L24.9046 96.8067L24.9181 22.2604Z" fill="#BE0000"/>
<path d="M89.2851 44.707L24.9208 7.4469L12.1842 14.8573L62.6568 44.7118L24.9103 65.7854L24.9074 81.5275L89.2851 44.707Z" fill="#FFBBBB"/>
<path d="M62.6568 44.7118L12.1842 14.8573L24.9208 7.4469L89.2851 44.707L24.9074 81.5275L24.9103 65.7854L62.6568 44.7118Z" fill="#FFBBBB"/>
<path d="M37.6413 89.4763L24.9047 96.8067L24.9154 37.1447L37.6493 44.8545L37.6413 89.4763Z" fill="#ED4F53"/>
<path d="M24.9075 81.5276L24.9047 96.8067L89.2823 59.7548L89.285 44.7072L24.9075 81.5276Z" fill="#ED4F53"/>
</svg>
